<svg width="19" height="19" viewBox="0 0 19 19" fill="none" xmlns="http://www.w3.org/2000/svg">
<path fill-rule="evenodd" clip-rule="evenodd" d="M8.27638 16.1205C8.61835 16.1728 8.96858 16.1999 9.3252 16.1999C13.1221 16.1999 16.2002 13.1219 16.2002 9.32497C16.2002 5.52799 13.1221 2.44995 9.3252 2.44995C9.07046 2.44995 8.81892 2.46381 8.57138 2.49081C10.4549 3.91776 11.7002 6.38963 11.7002 9.19995C11.7002 12.1545 10.3238 14.735 8.27638 16.1205ZM9.20018 18.2C14.1707 18.2 18.2002 14.1705 18.2002 9.19995C18.2002 4.22938 14.1707 0.199951 9.20018 0.199951C4.22962 0.199951 0.200195 4.22938 0.200195 9.19995C0.200195 14.1705 4.22962 18.2 9.20018 18.2Z" fill="#595761"/>
</svg>
