<svg width="16" height="12" viewBox="0 0 16 12" fill="none" xmlns="http://www.w3.org/2000/svg">
<path fill-rule="evenodd" clip-rule="evenodd" d="M3.52389 11.5549C3.51954 11.5549 3.51651 11.5506 3.51795 11.5465L7.60281 0.0041876C7.60372 0.00167821 7.60609 0 7.60875 0H11.9694C11.9721 0 11.9745 0.00169072 11.9754 0.00421573L15.9997 11.5465C16.0011 11.5506 15.998 11.5549 15.9937 11.5549H3.64664H3.52389ZM0.00629084 11.6C0.00190351 11.6 -0.00113392 11.5956 0.000405024 11.5915L3.04228 3.47051C3.0432 3.46804 3.04555 3.46642 3.04817 3.46642H5.69121C5.69558 3.46642 5.69862 3.47076 5.69711 3.47486L2.75571 11.5959C2.75481 11.5984 2.75244 11.6 2.7498 11.6H0.00629084Z" fill="#CE8056"/>
</svg>
