<svg width="20" height="16" viewBox="0 0 20 16" fill="none" xmlns="http://www.w3.org/2000/svg">
<path fill-rule="evenodd" clip-rule="evenodd" d="M14.6711 0.020752L14.7289 5.09439L10.3036 7.21871L10.249 2.42823L14.6711 0.020752Z" fill="#8BCEC1"/>
<path fill-rule="evenodd" clip-rule="evenodd" d="M19.1073 8.01568L14.7266 10.5214L10.3433 8.01172L14.7243 5.71045L19.1073 8.01568Z" fill="#8BCEC1"/>
<path fill-rule="evenodd" clip-rule="evenodd" d="M9.56383 8.01568L5.18313 10.5214L0.799805 8.01172L5.18085 5.71045L9.56383 8.01568Z" fill="#8BCEC1"/>
<path fill-rule="evenodd" clip-rule="evenodd" d="M5.13379 0L9.68066 2.2519L9.5644 7.15926L5.27131 5.03306L5.13379 0Z" fill="#8BCEC1"/>
<path fill-rule="evenodd" clip-rule="evenodd" d="M14.7949 15.9543L10.248 13.7024L10.3643 8.79504L14.6574 10.9213L14.7949 15.9543Z" fill="#8BCEC1"/>
<path fill-rule="evenodd" clip-rule="evenodd" d="M5.29071 16L5.23291 10.9263L9.65821 8.802L9.71278 13.5924L5.29071 16Z" fill="#8BCEC1"/>
</svg>
