<svg width="203" height="201" viewBox="0 0 203 201" fill="none" xmlns="http://www.w3.org/2000/svg">
<path d="M135.789 43.1757L27.6985 126.408C26.5846 126.531 24.9293 126.254 22.7325 125.577C19.9788 124.715 17.3644 123.438 14.8891 121.745C7.83473 116.944 3.56495 110.051 2.07981 101.064C0.625616 92.4472 1.95605 83.1992 6.07113 73.3202C7.4325 70.058 9.10328 66.6881 11.0835 63.2105L14.7035 57.1631C17.6428 51.9621 20.0717 46.8226 21.99 41.7446C25.1768 33.2506 26.0431 26.9724 24.5889 22.91L26.0741 23.0947C27.1879 23.3101 28.0852 23.7102 28.7659 24.2949C28.6731 23.3101 28.4101 22.1561 27.9769 20.8327C27.0797 18.1245 25.7956 15.8471 24.1248 14.0006L29.1372 13.3081C33.376 13.3389 37.6767 14.5391 42.0393 16.9088L41.7145 14.3699C41.5907 12.6464 41.7609 11.6924 42.225 11.5077C42.9366 11.2308 43.9576 11.9078 45.2881 13.5389C45.319 12.1848 45.6129 10.646 46.1699 8.92261C47.2528 5.53731 49.0783 2.98295 51.6463 1.25952L54.1989 5.922C56.5813 9.27653 59.4897 11.6001 62.9241 12.8926C65.9253 14.0621 72.7322 14.9546 83.3448 15.5701C93.617 16.1856 100.857 17.4474 105.065 19.3555L109.52 19.7248C113.14 20.1864 116.482 21.0327 119.545 22.2638C129.415 26.2338 134.83 33.2044 135.789 43.1757Z" fill="#68AE28"/>
<path d="M5.28229 110.112C-1.71024 97.0017 -0.0394541 81.9371 10.2946 64.9183C5.06571 78.6749 6.82931 89.6771 15.5854 97.925C19.3911 101.495 24.1869 104.111 29.9727 105.773C35.6348 107.373 41.6373 107.896 47.98 107.342L26.3527 126.777C23.1968 126.5 19.685 124.977 15.8175 122.207C11.393 118.975 7.88129 114.944 5.28229 110.112Z" fill="#56931F"/>
<path d="M178.208 37.0819C180.961 38.2822 183.359 42.3599 185.401 49.3152C187.227 55.6241 187.846 60.0866 187.258 62.7025C190.909 66.9187 194.467 75.1511 197.932 87.3998C201.862 101.126 202.527 111.112 199.928 117.36C199.093 119.36 196.648 122.084 192.595 125.531C188.387 129.162 184.226 131.963 180.111 133.932L182.199 137.302C183.87 140.257 185.37 143.442 186.701 146.858C190.94 157.876 192.703 169.293 191.992 181.111C191.775 184.866 188.65 187.943 182.617 190.344C176.707 192.652 170.411 193.421 163.728 192.652C161.469 192.344 158.483 189.713 154.77 184.758C150.532 179.003 148.01 173.032 147.206 166.847C141.543 170.109 136.763 172.309 132.865 173.448L131.658 175.479C130.606 177.141 129.368 178.68 127.945 180.095C123.459 184.65 118.153 187.189 112.026 187.712C105.931 188.236 101.197 187.759 97.8247 186.281C96.7727 185.82 95.9064 185.281 95.2257 184.666L94.5759 183.881L57.4939 185.127L53.6882 188.451C50.2848 190.698 46.3554 191.882 41.8999 192.006C35.8047 192.19 31.0089 191.636 27.5127 190.344C23.1191 188.682 19.9941 185.65 18.1377 181.25C15.4459 174.91 14.0227 167.647 13.8679 159.46C13.6514 148.812 16.0492 140.103 21.0616 133.332C25.8883 126.808 32.1847 120.16 39.9507 113.39C42.1165 111.512 48.0107 106.742 57.6331 99.0791C62.5526 95.2014 66.9307 91.4468 70.7673 87.8153C74.6658 84.1222 77.0327 81.4755 77.8681 79.8752C78.7654 73.7509 79.9411 67.5342 81.3953 61.2253C84.3347 48.6073 87.1812 41.8675 89.9349 41.0058C92.6886 40.1749 96.7418 41.052 102.094 43.6371C104.755 44.9604 107.138 46.3453 109.242 47.7918L112.398 46.6839C115.182 45.8529 118.23 45.1451 121.54 44.5604C132.122 42.7446 143.353 42.6369 155.235 44.2372C157.029 42.3291 160.989 40.4826 167.116 38.6976C173.025 36.9742 176.723 36.4356 178.208 37.0819Z" fill="#7CBEB3"/>
<path d="M186.608 55.455L187.537 62.7027L182.756 55.6397C183.251 53.5777 183.468 50.7926 183.406 47.2842L183.128 42.6678C184.551 45.7146 185.711 49.977 186.608 55.455Z" fill="#68A198"/>
<path d="M80.3283 63.6259C82.8345 52.1775 85.2942 45.5607 87.7076 43.7758C87.1197 50.4233 86.9186 56.9938 87.1042 63.4874C87.228 67.3036 87.6302 73.1201 88.3109 80.9371C88.7131 85.5842 88.2335 89.7081 86.8722 93.3088C85.6655 96.4479 84.0875 98.5868 82.1383 99.7255C80.22 100.833 78.642 100.587 77.4044 98.9869C76.074 97.2327 75.6253 94.2167 76.0585 89.9389C76.9248 81.4141 78.3481 72.6431 80.3283 63.6259Z" fill="#68A198"/>
<path d="M164.099 180.973C166.482 185.404 169.328 188.174 172.639 189.282L170.875 192.79C166.203 193.714 162.073 192.498 158.483 189.143C154.183 185.05 150.377 177.618 147.066 166.847C141.714 170.078 135.773 172.494 129.245 174.094C122.809 175.695 115.074 176.664 106.039 177.002C104.616 177.464 103.58 178.449 102.93 179.957C102.28 181.403 102.265 182.711 102.884 183.881L100.285 186.928L94.7153 183.558C94.87 182.511 95.7363 179.388 97.3143 174.187C98.8613 169.201 99.8359 164.877 100.238 161.215C101.414 150.259 98.3508 140.349 91.0488 131.486C97.5463 137.979 108.932 142.057 125.207 143.719C142.596 145.473 157.37 143.903 169.529 139.01C165.631 141.503 162.846 145.381 161.175 150.643C159.69 155.383 159.241 160.63 159.829 166.385C160.417 171.925 161.84 176.787 164.099 180.973Z" fill="#68A198"/>
<path d="M13.4041 154.475C14.7345 165.277 20.6751 172.217 31.2258 175.295C35.279 176.464 39.5487 176.895 44.0351 176.587C48.1192 176.31 51.4763 175.51 54.1062 174.187L57.4942 185.543C55.0808 187.882 51.8321 189.713 47.7479 191.036C39.5797 193.683 31.365 192.529 23.1039 187.574C19.1126 185.174 16.2506 179.08 14.518 169.293C13.961 166 13.5898 162.661 13.4041 159.276C13.2494 156.445 13.2494 154.844 13.4041 154.475Z" fill="#68A198"/>
<path d="M112.769 79.2291C113.976 79.0137 115.26 79.2137 116.621 79.8293C111.949 83.3992 109.505 88.8772 109.288 96.2633C109.072 103.003 110.619 109.328 113.929 115.236C107.432 114.529 102.853 113.051 100.192 110.805C99.4181 110.128 99.0933 108.235 99.217 105.127C99.3408 101.895 99.9132 98.51 100.934 94.9708C103.595 85.5535 107.54 80.3063 112.769 79.2291Z" fill="white"/>
<path d="M128.828 96.8173C130.282 100.695 131.179 104.188 131.52 107.296C131.891 110.62 131.52 112.836 130.406 113.944C129.663 114.682 127.668 115.19 124.419 115.467C121.108 115.713 117.612 115.637 113.93 115.236C110.619 109.328 109.072 103.003 109.289 96.2634C109.506 88.8773 111.95 83.3992 116.622 79.8293C121.232 81.9528 125.301 87.6155 128.828 96.8173Z" fill="#D60040"/>
<path d="M183.174 76.9209C187.042 80.06 189.347 84.7532 190.089 91.0007C190.553 94.9091 190.368 100.403 189.532 107.481C188.171 108.004 186.856 108.358 185.588 108.543C184.288 108.758 183.313 108.758 182.664 108.543C180.838 107.958 179.925 103.311 179.925 94.6014C179.895 85.7073 180.977 79.8138 183.174 76.9209Z" fill="#D60040"/>
<path d="M183.174 76.9208C183.731 76.1514 184.319 75.7051 184.938 75.582C187.939 74.9357 190.848 78.5826 193.663 86.5227C196.417 94.4012 196.958 100.033 195.287 103.418C194.514 105.019 192.596 106.373 189.533 107.481C190.368 100.402 190.554 94.909 190.089 91.0005C189.347 84.7531 187.042 80.0599 183.174 76.9208Z" fill="white"/>
<path d="M155.93 72.2121C155.033 72.5506 152.697 71.612 148.922 69.3961C144.962 67.1188 143.059 65.2568 143.214 63.8104C143.43 61.9023 146.633 59.271 152.821 55.9165C159.102 52.5312 163.279 51.2848 165.352 52.1773C166.682 52.7312 165.986 55.9934 163.263 61.9639C160.509 67.9651 158.065 71.3812 155.93 72.2121Z" fill="#006359"/>
<path d="M135.279 76.1824C135.186 75.7823 135.65 75.0283 136.671 73.9204C137.723 72.7817 138.667 72.1046 139.502 71.8892L140.523 73.3202C141.389 74.7667 142.256 76.7979 143.122 79.4138L142.519 80.8448C141.931 81.8912 141.204 82.6144 140.337 83.0145L138.11 80.891C136.563 79.1983 135.619 77.6288 135.279 76.1824Z" fill="#006359"/>
<path d="M171.154 86.2457C172.113 91.6929 172.19 94.7397 171.386 95.386C170.674 95.9707 168.508 95.7399 164.888 94.6935C161.237 93.6471 159.164 92.6316 158.669 91.6467C158.824 89.3694 160 86.5226 162.197 83.1066C164.455 79.6905 166.281 77.9825 167.673 77.9825C169.034 77.9825 170.195 80.7369 171.154 86.2457Z" fill="#006359"/>
<path d="M173.938 166.523C173.814 164.769 174.897 162.261 177.187 158.999C179.415 155.798 181.024 154.259 182.014 154.383C183.499 154.536 184.52 157.629 185.077 163.661C185.603 169.724 185.123 173.002 183.638 173.494C181.998 174.048 180.034 173.74 177.744 172.571C175.114 171.186 173.845 169.17 173.938 166.523Z" fill="#006359"/>
<path d="M26.8173 140.58L34.475 140.903C37.9094 141.58 39.8896 142.334 40.4156 143.165C41.2819 144.55 40.7095 147.474 38.6984 151.936C36.7182 156.368 35.0474 158.645 33.686 158.768C32.5103 158.86 30.1279 157.691 26.5388 155.26C22.9188 152.828 21.1242 151.136 21.1552 150.182C21.1861 148.951 21.7895 147.197 22.9652 144.919C24.2647 142.365 25.5487 140.918 26.8173 140.58Z" fill="#006359"/>
<path d="M70.9534 101.018C71.7579 102.403 70.4584 106.25 67.0549 112.559C63.6515 118.868 61.037 122.222 59.2116 122.622C57.5408 123.022 54.818 122.299 51.0433 120.453C47.4851 118.76 45.1182 117.206 43.9425 115.79C43.5712 115.329 43.8187 113.974 44.685 111.728L46.0774 108.45L52.2964 103.557C56.5043 100.264 58.8557 98.556 59.3508 98.4329L65.1521 98.9407C68.5556 99.5254 70.4893 100.218 70.9534 101.018Z" fill="#006359"/>
<path d="M118.06 84.4915C119.05 84.4915 119.916 85.4609 120.659 87.3998C121.401 89.4617 121.757 92.0315 121.726 95.109C121.664 98.0327 121.262 100.341 120.52 102.034C119.839 103.572 119.004 104.342 118.013 104.342C117.085 104.342 116.281 103.511 115.6 101.849C114.858 100.095 114.455 97.8788 114.393 95.2014C114.27 91.9699 114.61 89.3386 115.414 87.3075C116.126 85.4302 117.008 84.4915 118.06 84.4915Z" fill="white"/>
<path d="M180.992 85.5073L181.921 81.3526C182.292 80.8602 182.648 80.6294 182.988 80.6602C183.545 80.6909 184.071 81.2911 184.566 82.4605C185.278 84.0301 185.664 86.2459 185.726 89.108C185.757 91.8163 185.51 93.9244 184.984 95.4324C184.489 96.7865 183.87 97.4636 183.127 97.4636C182.663 97.4636 182.199 97.125 181.735 96.448C181.24 95.7094 180.9 94.7399 180.714 93.5397C180.343 91.4162 180.436 88.7387 180.992 85.5073Z" fill="white"/>
<path d="M161.222 46.361C152.744 44.7299 144.159 44.099 135.464 44.4683C126.12 44.8376 117.534 46.3456 109.706 48.9923C109.428 49.0846 109.041 48.7769 108.546 48.069C108.02 47.3612 107.896 46.9457 108.175 46.8226C117.055 43.8374 126.677 42.2371 137.042 42.0217C146.139 41.8062 154.446 42.6526 161.965 44.5606C165.801 45.5455 167.627 46.2687 167.441 46.7303L161.222 46.361Z" fill="#0D131A"/>
<path d="M186.284 59.2404C192.565 68.2884 197.144 78.7828 200.021 90.7237C202.528 101.126 203.146 109.174 201.878 114.867C200.485 121.176 193.555 127.639 181.086 134.256C168.71 140.842 156.751 144.488 145.21 145.196C132.865 145.935 121.247 144.919 110.356 142.149C99.4651 139.38 92.4417 135.64 89.2857 130.932C88.2647 129.393 87.9398 128.454 88.3111 128.116C88.7133 127.777 89.6261 128.377 91.0493 129.916C95.2263 134.471 102.667 137.949 113.373 140.349C123.552 142.627 134.18 143.427 145.257 142.75C156.829 142.042 168.509 138.426 180.297 131.901C191.621 125.623 197.902 119.683 199.14 114.082C200.439 108.266 199.898 100.418 197.515 90.5391C194.854 79.4907 190.6 69.5502 184.752 60.7177C182.339 57.0554 181.395 55.0242 181.921 54.6241C182.416 54.224 183.87 55.7628 186.284 59.2404Z" fill="#0D131A"/>
<path d="M78.75 80.3831C76.708 84.1992 72.5774 88.7386 66.3584 94.0012C62.6455 97.1095 56.3956 102.034 47.6085 108.773C39.595 115.113 33.4069 120.699 29.0443 125.531C23.0418 132.178 19.0505 138.718 17.0703 145.15C14.6879 152.875 14.5642 161.553 16.6991 171.186C18.6792 180.265 21.4948 185.866 25.1458 187.989C29.0752 190.267 34.366 191.267 41.0182 190.99C47.887 190.713 52.6363 189.113 55.2663 186.189C59.3195 181.665 60.8974 174.341 60.0001 164.215C59.0719 153.875 55.916 145.627 50.5324 139.472C48.4284 137.041 47.5312 135.563 47.8406 135.04C48.15 134.517 49.4649 135.487 51.7855 137.949C58.5614 145.181 62.3361 154.029 63.1097 164.492C63.8213 174.433 61.7328 182.127 56.8442 187.574C53.9049 190.867 48.6141 192.713 40.9718 193.114C33.577 193.514 27.7138 192.452 23.3822 189.928C18.9887 187.374 15.7708 181.342 13.7288 171.832C11.6558 162.046 11.8569 152.998 14.3321 144.688C16.2195 138.41 19.9478 132.117 25.5171 125.808C29.5703 121.191 35.4335 115.79 43.1067 109.604L62.135 94.2782C69.0038 88.4001 74.1244 82.999 77.4969 78.0749C77.6516 77.8595 77.9301 78.1211 78.3323 78.8597C78.7655 79.6291 78.9047 80.1369 78.75 80.3831Z" fill="#0D131A"/>
<path d="M90.1206 39.621C92.0389 39.0054 95.2722 39.621 99.8204 41.4675C104.4 43.3448 108.159 45.6376 111.098 48.3458C113.419 50.5001 114.316 51.7157 113.79 51.9927C113.295 52.3004 111.872 51.5464 109.52 49.7307C106.488 47.4533 102.976 45.5298 98.985 43.9603C95.0866 42.3907 92.4721 41.8368 91.1417 42.2984C88.9758 43.0063 86.4697 48.4689 83.6231 58.6863C80.6219 69.4885 78.6727 80.8139 77.7754 92.6624C77.5279 96.0785 77.0947 97.6481 76.4759 97.3711C75.8262 97.0941 75.5632 95.4784 75.6869 92.524C76.0892 82.2757 77.6362 71.5505 80.328 60.3482C83.3911 47.6687 86.6553 40.7596 90.1206 39.621Z" fill="#0D131A"/>
<path d="M153.75 43.591C156.441 41.5599 160.572 39.621 166.141 37.7745C172.422 35.6817 176.785 35.1893 179.229 36.2972C181.642 37.3744 183.839 40.9905 185.819 47.1456C187.645 52.8698 188.666 58.6248 188.882 64.4106C188.882 64.6876 188.496 64.3952 187.722 63.5335C186.918 62.6718 186.516 62.0871 186.516 61.7793C186.33 57.1015 185.247 52.1774 183.267 47.0071C181.379 42.083 179.631 39.2517 178.022 38.5131C176.506 37.836 173.041 38.2669 167.626 39.8057C162.15 41.3444 158.251 42.9909 155.931 44.7451C155.714 44.9298 155.235 44.8374 154.492 44.4681C153.781 44.0681 153.533 43.7757 153.75 43.591Z" fill="#0D131A"/>
<path d="M155.466 70.9196C156.983 70.8888 159.102 68.0113 161.825 62.2871C164.516 56.6552 165.522 53.67 164.841 53.3314C163.325 52.5621 159.566 53.6854 153.564 56.7014C147.53 59.7174 144.498 62.0409 144.467 63.672C144.436 64.6876 145.767 66.1186 148.458 67.9652C151.212 69.8117 153.548 70.7965 155.466 70.9196ZM151.754 55.455C158.344 51.9158 163.047 50.4078 165.862 50.931C166.822 51.1156 167.1 52.3774 166.698 54.7163C166.327 56.8706 165.491 59.3942 164.192 62.2871C160.943 69.4886 158.034 73.0277 155.466 72.9046C153.424 72.7815 150.702 71.6121 147.298 69.3962C143.74 67.0881 141.961 65.1338 141.961 63.5335C141.961 61.6562 145.225 58.9634 151.754 55.455Z" fill="#0D131A"/>
<path d="M142.193 79.6906C142.286 79.4444 141.946 78.3057 141.172 76.2745C140.399 74.2125 139.842 73.1662 139.501 73.1354C139.223 73.1046 138.604 73.5201 137.645 74.3818C136.686 75.2435 136.206 75.8898 136.206 76.3207C136.237 76.7207 136.887 77.7671 138.156 79.4598C139.424 81.0909 140.167 81.9064 140.383 81.9064C140.569 81.9064 140.894 81.5986 141.358 80.9831L142.193 79.6906ZM142.286 74.8434C143.245 77.1208 143.74 78.675 143.771 79.5059C143.802 80.183 143.307 81.1062 142.286 82.2757C141.234 83.476 140.445 83.953 139.919 83.7068C139.3 83.4298 138.233 82.2911 136.717 80.2907C135.077 78.1672 134.319 76.7054 134.443 75.9052C134.566 75.0743 135.294 74.0279 136.624 72.7661C137.954 71.5659 138.96 70.9811 139.641 71.0119C140.352 71.0734 141.234 72.3506 142.286 74.8434Z" fill="#0D131A"/>
<path d="M167.348 79.3215C166.388 79.26 164.81 81.0603 162.614 84.7226C160.479 88.3541 159.535 90.5238 159.783 91.2316C160.03 91.8779 161.778 92.6627 165.027 93.5859C168.307 94.5092 170.179 94.7554 170.643 94.3245C171.354 93.6475 171.215 90.9854 170.225 86.3383C169.235 81.722 168.276 79.3831 167.348 79.3215ZM161.036 83.1992C163.727 78.5829 165.847 76.3517 167.394 76.5056C169.343 76.6902 170.906 79.8909 172.081 86.1075C173.226 92.2934 173.133 95.7094 171.803 96.3557C170.658 96.9405 168.136 96.5865 164.238 95.294C160.401 94.0322 158.297 92.955 157.926 92.0625C157.338 90.7392 158.375 87.7848 161.036 83.1992Z" fill="#0D131A"/>
<path d="M102.048 88.5078C105.668 81.214 109.551 77.798 113.698 78.2596C119.545 78.9367 124.573 83.8453 128.781 92.9856C130.545 96.8634 131.705 100.695 132.262 104.48C132.85 108.42 132.649 111.559 131.658 113.898C131.132 115.19 129.152 116.052 125.718 116.483C122.562 116.852 118.895 116.821 114.719 116.39C110.511 115.96 106.922 115.206 103.951 114.128C100.672 112.99 98.8925 111.682 98.6141 110.205C97.2218 103.188 98.3666 95.9555 102.048 88.5078ZM123.861 89.1541C120.613 83.6761 117.147 80.737 113.465 80.3369C112.011 80.1831 110.433 80.9832 108.732 82.7374C106.164 85.3841 104.091 89.2003 102.513 94.1859C100.842 99.6024 100.347 104.788 101.027 109.743C101.275 111.651 105.901 113.097 114.904 114.082C123.908 115.098 128.796 114.713 129.57 112.928C130.374 110.989 130.235 107.604 129.152 102.772C128.007 97.7251 126.244 93.1857 123.861 89.1541Z" fill="#0D131A"/>
<path d="M192.225 85.461C189.904 79.7368 187.568 76.8747 185.217 76.8747C183.144 76.8747 181.875 81.7526 181.411 91.5084C180.947 101.203 181.535 106.527 183.175 107.481C184.258 108.096 186.3 107.758 189.301 106.465C192.302 105.173 193.926 103.957 194.174 102.818C195.381 97.3712 194.731 91.5854 192.225 85.461ZM179.23 90.7237C179.756 80.0753 181.751 74.7512 185.217 74.7512C188.218 74.7512 191.126 77.9364 193.942 84.307C196.881 91.016 197.701 97.2788 196.402 103.095C195.938 105.065 193.648 106.819 189.533 108.358C185.542 109.866 183.004 110.158 181.922 109.235C180.901 108.404 180.142 106.127 179.647 102.403C179.152 98.833 179.013 94.9399 179.23 90.7237Z" fill="#0D131A"/>
<path d="M58.8405 97.5556L66.9623 98.0634C70.1183 98.6174 71.9283 99.3406 72.3924 100.233C73.2278 101.926 71.7117 106.265 67.8441 113.251C63.9766 120.299 61.0218 123.822 58.9797 123.822C57.0305 123.822 53.8436 122.853 49.4191 120.914C44.7471 118.883 42.4111 117.221 42.4111 115.929C42.4111 115.19 42.7515 114.082 43.4322 112.605L45.6599 108.265C45.8146 108.019 46.2323 107.865 46.913 107.804C47.6246 107.773 47.9031 107.881 47.7484 108.127C46.913 109.666 46.2477 111.158 45.7527 112.605C45.3195 113.867 45.1029 114.774 45.1029 115.328C45.2267 116.159 47.2224 117.437 51.0899 119.16C54.8646 120.853 57.4791 121.714 58.9333 121.745C60.2947 121.314 62.5224 118.175 65.6164 112.328C68.7105 106.48 70.0409 102.911 69.6077 101.618C69.3602 101.095 68.0298 100.602 65.6164 100.141L58.4228 99.6329C58.1134 99.6637 58.036 99.3252 58.1907 98.6174C58.3454 97.9403 58.562 97.5864 58.8405 97.5556Z" fill="#0D131A"/>
<path d="M27.2345 141.411C26.2753 141.872 25.1769 143.149 23.9393 145.242C22.7017 147.304 22.1293 148.735 22.2221 149.535C22.3459 150.366 23.9857 151.89 27.1416 154.105C30.2976 156.321 32.3396 157.368 33.2678 157.245C34.196 157.121 35.6348 154.998 37.584 150.874C39.5333 146.75 40.2604 144.427 39.7653 143.903C39.2084 143.349 37.1818 142.703 33.6855 141.965C30.1274 141.226 27.977 141.041 27.2345 141.411ZM22.0829 144.042C23.5371 141.641 24.9139 140.103 26.2134 139.426L34.2425 139.795C38.6979 140.626 41.2969 141.626 42.0394 142.796C42.7201 143.873 41.9466 146.889 39.7189 151.843C37.4912 156.768 35.6657 159.491 34.2425 160.014C33.1595 160.445 30.607 159.26 26.5847 156.46C22.5006 153.628 20.3502 151.413 20.1336 149.812C19.9789 148.427 20.6287 146.504 22.0829 144.042Z" fill="#0D131A"/>
<path d="M174.96 166.431V166.477C175.022 169.032 176.275 170.894 178.719 172.063C180.916 173.11 182.401 173.279 183.174 172.571C183.979 171.832 184.257 169.032 184.01 164.169C183.762 159.214 183.035 156.46 181.828 155.906C181.179 155.629 179.864 157.014 177.884 160.061C175.934 163.107 174.96 165.231 174.96 166.431ZM176.306 158.491C178.688 154.706 180.529 152.828 181.828 152.859C183.932 152.89 185.247 156.229 185.773 162.877C186.299 169.401 185.866 173.171 184.474 174.187C183.329 175.048 181.241 174.894 178.208 173.725C174.743 172.371 172.964 170.109 172.871 166.939C172.84 165.031 173.985 162.215 176.306 158.491Z" fill="#0D131A"/>
<path d="M196.679 112.697C196.648 113.898 196.478 114.882 196.168 115.652L195.24 117.175C193.724 118.96 190.104 121.207 184.38 123.915C178.47 126.716 173.35 128.547 169.018 129.408C161.128 131.009 149.015 131.147 132.679 129.824C116.342 128.531 106.023 126.592 101.723 124.007C101.011 123.546 100.361 122.792 99.7734 121.745C99.2475 120.853 98.8607 119.868 98.6132 118.791C98.1491 116.852 98.1181 115.76 98.5204 115.513C98.9226 115.267 99.5569 116.16 100.423 118.191C100.949 119.391 101.506 120.314 102.094 120.961L103.95 122.345C107.416 124.223 116.682 125.885 131.75 127.331C148.056 128.901 160.339 128.854 168.6 127.193C172.313 126.423 176.722 124.931 181.827 122.715C186.561 120.653 190.104 118.775 192.455 117.083C193.322 116.437 193.956 115.775 194.358 115.098C194.791 114.39 195.07 113.528 195.194 112.513C195.41 110.666 195.72 109.804 196.122 109.928C196.524 110.081 196.71 111.005 196.679 112.697Z" fill="#0D131A"/>
<path d="M126.32 74.7974C127.403 75.7822 128.455 76.9824 129.476 78.3981C130.559 79.8753 131.333 81.2141 131.797 82.4143C132.478 84.1377 132.509 85.1072 131.89 85.3226C131.24 85.5072 130.513 84.8302 129.708 83.2914C128.378 80.6755 126.754 78.3058 124.835 76.1823C123.041 74.1203 122.329 72.9201 122.7 72.5816C123.103 72.243 124.309 72.9816 126.32 74.7974Z" fill="#0D131A"/>
<path d="M178.626 75.1206C178.038 76.8132 177.667 78.629 177.512 80.5678C177.388 82.2605 177.002 83.0914 176.352 83.0606C175.702 83.0606 175.424 82.2297 175.516 80.5678C175.609 78.5366 176.135 76.5362 177.094 74.5666C177.961 72.8124 178.595 71.9815 178.997 72.0738C179.368 72.1969 179.245 73.2125 178.626 75.1206Z" fill="#0D131A"/>
<path d="M158.251 123.5C157.571 123.161 157.029 122.73 156.627 122.207C156.225 121.715 156.085 121.361 156.209 121.145L157.648 121.191C158.545 121.376 159.21 121.668 159.644 122.068C160.201 122.622 160.309 123.099 159.968 123.5C159.628 123.9 159.056 123.9 158.251 123.5Z" fill="#0D131A"/>
<path d="M174.078 121.191C173.428 121.992 172.84 122.269 172.314 122.022C171.788 121.776 171.757 121.268 172.221 120.499C172.562 119.945 173.103 119.453 173.846 119.022C174.526 118.591 174.96 118.452 175.145 118.606C175.269 118.729 175.238 119.052 175.052 119.576L174.078 121.191Z" fill="#0D131A"/>
<path d="M118.292 80.0599C118.57 80.1522 118.694 80.5984 118.663 81.3986C118.632 82.1988 118.493 82.5219 118.245 82.368C116.667 81.3832 115.182 82.1372 113.79 84.63C112.491 86.9074 111.593 90.0619 111.098 94.0935C110.572 98.2482 110.634 102.126 111.284 105.727C112.057 109.82 113.496 112.743 115.6 114.498C115.848 114.682 115.693 114.959 115.136 115.329C114.579 115.667 114.177 115.744 113.929 115.559C111.392 113.682 109.644 110.574 108.685 106.234C107.849 102.326 107.757 98.1404 108.406 93.678C109.056 89.2771 110.247 85.7687 111.98 83.1528C113.867 80.3522 115.971 79.3213 118.292 80.0599Z" fill="#0D131A"/>
<path d="M182.385 77.2901C183.468 76.4592 184.721 76.8131 186.145 78.3519C187.568 79.8599 188.79 82.1065 189.811 85.0917C192.348 92.5701 192.456 99.9255 190.136 107.158C190.043 107.435 189.687 107.635 189.068 107.758C188.45 107.85 188.171 107.758 188.233 107.481C190.12 101.634 190.182 95.0014 188.419 87.5845C187.707 84.5993 186.825 82.245 185.773 80.5216C184.721 78.7674 183.762 78.1211 182.896 78.5827C182.648 78.7366 182.447 78.5981 182.292 78.1672C182.138 77.7672 182.169 77.4748 182.385 77.2901Z" fill="#0D131A"/>
<path d="M178.95 134.625C178.795 134.379 179.12 134.009 179.925 133.517C180.698 132.994 181.147 132.855 181.271 133.102C190.058 147.227 193.972 163.708 193.012 182.542C192.92 184.296 191.574 186.112 188.975 187.99C186.5 189.774 183.436 191.267 179.785 192.467C170.936 195.36 164.284 195.253 159.829 192.144C156.89 190.082 153.842 186.143 150.686 180.326C147.654 174.756 146.107 170.524 146.045 167.632C146.045 167.355 146.478 167.047 147.344 166.708L148.598 166.57C148.659 169.432 150.098 173.479 152.914 178.711C155.915 184.281 158.932 188.128 161.964 190.252C165.831 192.929 171.664 193.006 179.461 190.482C182.616 189.467 185.277 188.205 187.443 186.697C189.702 185.158 190.862 183.742 190.924 182.45C191.821 164.846 187.83 148.905 178.95 134.625Z" fill="#0D131A"/>
<path d="M153.007 163.892C144.994 170.14 135.433 174.371 124.325 176.587C114.022 178.618 104.817 178.511 96.7111 176.264C96.4326 176.172 96.3862 175.695 96.5718 174.833C96.7265 174.002 96.9431 173.617 97.2216 173.679C105.173 175.895 114.069 176.033 123.908 174.094C133.901 172.125 142.967 168.385 151.104 162.877C154.198 160.784 155.916 159.953 156.256 160.384C156.565 160.784 155.482 161.953 153.007 163.892Z" fill="#0D131A"/>
<path d="M131.334 173.217C131.488 172.971 132.2 172.756 133.469 172.571L135.139 172.709C132.726 176.649 129.74 180.08 126.182 183.004C122.098 186.358 118.091 188.282 114.162 188.774L100.239 188.359C96.5876 187.466 94.4372 186.112 93.7875 184.296C93.6946 184.019 93.9267 183.558 94.4836 182.911C95.0096 182.234 95.319 182.034 95.4118 182.311C96.0306 184.035 97.9335 185.327 101.12 186.189C104.586 187.143 108.84 187.312 113.883 186.697C116.823 186.328 119.932 184.866 123.212 182.311C126.461 179.788 129.168 176.756 131.334 173.217Z" fill="#0D131A"/>
<path d="M23.3356 22.0328C23.5831 21.8481 24.1865 21.8481 25.1456 22.0328C26.6308 22.3098 27.9303 22.9714 29.0441 24.0178C29.2916 24.2024 29.3071 24.4948 29.0905 24.8949C28.9049 25.2642 28.6883 25.3565 28.4408 25.1719C27.791 24.6179 27.1568 24.2486 26.5379 24.064L25.6561 24.0178L25.8418 25.495L26.1203 28.2648C26.2131 32.4503 24.8362 37.9283 21.9897 44.6989C19.762 50.0846 16.9 55.655 13.4038 61.41C2.38897 79.5983 -0.03985 95.2937 6.11729 108.496C8.43782 113.482 11.7639 117.56 16.0956 120.73C19.9322 123.499 23.6141 125.007 27.1413 125.254C27.4197 125.284 27.3733 125.638 27.0021 126.315C26.6617 127.023 26.3368 127.362 26.0274 127.331C21.9124 127.054 17.7973 125.438 13.6822 122.484C9.10304 119.16 5.62224 114.852 3.23983 109.558C-2.94825 95.8323 -0.271903 79.4752 11.2689 60.4867C16.7144 51.5003 20.4117 44.1142 22.361 38.3284C24.434 32.2041 24.7743 27.2338 23.382 23.4177C23.1036 22.7098 23.0881 22.2482 23.3356 22.0328Z" fill="#0D131A"/>
<path d="M47.376 20.4172C47.5926 20.6326 47.5926 20.9711 47.376 21.4328C47.1594 21.9252 46.9428 22.0637 46.7262 21.8482C44.4057 19.4478 41.389 17.5243 37.6762 16.0779C34.1799 14.7545 31.0395 14.1698 28.2548 14.3237C26.9553 14.416 26.2592 14.5852 26.1663 14.8314C26.0735 15.0469 26.3829 15.7085 27.0946 16.8165C30.4671 22.1098 30.5599 29.9268 27.373 40.2674C25.6404 45.8069 22.9331 52.7006 19.2512 60.9485C13.8057 75.1975 13.3725 87.9077 17.9517 99.0792C19.839 103.696 22.4535 107.604 25.7951 110.805C28.8891 113.79 32.2307 115.806 35.8197 116.852C36.0673 116.914 35.8816 117.221 35.2628 117.775C34.644 118.299 34.1954 118.529 33.9169 118.468C24.4182 115.698 17.9053 108.65 14.3781 97.325C10.6961 85.5996 11.5934 73.1048 17.0699 59.8405L21.154 50.6541C23.1032 46.1609 24.5729 42.237 25.563 38.8825C28.5952 28.7881 28.2393 21.3558 24.4956 16.5856C23.227 14.9545 22.6391 13.9082 22.732 13.4466C22.8248 12.9234 23.753 12.5541 25.5166 12.3386C28.8272 11.9078 32.5401 12.4156 36.6551 13.862C41.0177 15.4008 44.5913 17.5858 47.376 20.4172Z" fill="#0D131A"/>
<path d="M44.1283 11.5076L45.8455 12.8925C46.0312 13.1079 45.9848 13.5541 45.7063 14.2312C45.4278 14.8775 45.1958 15.0929 45.0101 14.8775L44.0355 13.7234C43.4786 13.1695 43.0609 12.954 42.7824 13.0771C42.5349 13.2002 42.4421 13.6003 42.504 14.2774L42.9217 16.9087C42.9835 17.1549 42.736 17.278 42.1791 17.278C41.6222 17.2472 41.3282 17.0933 41.2973 16.8163L40.8332 13.9542C40.7094 12.3847 40.957 11.3537 41.5758 10.8613C42.1017 10.4612 42.9526 10.6766 44.1283 11.5076Z" fill="#0D131A"/>
<path d="M115.321 24.5256C121.973 29.8498 125.47 36.2818 125.81 43.8218C125.841 44.1296 125.439 44.3604 124.603 44.5143C123.768 44.6989 123.35 44.6374 123.35 44.3296C123.041 37.4359 119.916 31.4809 113.975 26.4645C106.828 20.4325 96.8342 17.1857 83.9939 16.7241C73.0101 16.324 65.1512 15.1083 60.4174 13.0772C56.5808 11.4461 53.8116 8.69166 52.1099 4.81395C51.7386 3.98302 51.4292 3.53677 51.1817 3.47522C50.9032 3.38289 50.4546 3.69065 49.8358 4.39849C47.7627 6.67587 46.5406 9.46105 46.1693 12.754C45.798 16.1393 46.5097 18.7706 48.3042 20.6479C51.9242 24.341 54.7862 28.6957 56.8902 33.7121C58.1897 36.8204 59.7676 42.0061 61.624 49.2691C63.8827 58.1016 66.3734 64.6722 69.0962 68.9808C71.2929 72.4584 74.5107 75.5975 78.7495 78.398C78.9352 78.4904 78.8114 78.9366 78.3783 79.7368C77.976 80.5062 77.6512 80.8139 77.4036 80.66C71.9581 77.0901 68.0442 73.3047 65.6618 69.3039C63.465 65.6109 61.3456 59.6096 59.3035 51.3003C57.1067 42.2831 55.4669 36.4203 54.384 33.7121C52.7132 29.4343 50.1916 25.5566 46.8191 22.079C44.4057 19.5862 43.6322 15.9085 44.4985 11.046C45.3339 6.46044 47.0202 3.18285 49.5573 1.21323C50.7021 0.320738 51.5065 -0.079343 51.9706 0.0129834C52.4347 0.10531 52.8834 0.751594 53.3165 1.95184C55.173 6.75281 57.8338 9.92268 61.2992 11.4614C65.1977 13.1541 72.7781 14.2159 84.0404 14.6467C97.2829 15.1083 107.71 18.4013 115.321 24.5256Z" fill="#0D131A"/>
<path d="M128.873 26.8339C134.783 31.881 137.335 37.3437 136.531 43.2218C136.5 43.4988 136.036 43.6219 135.139 43.5911C134.241 43.5603 133.808 43.4064 133.839 43.1295C134.52 38.0823 132.509 33.3429 127.806 28.9112C122.391 23.8333 114.857 20.9404 105.204 20.2325C104.894 20.2018 103.997 19.8324 102.512 19.1246C100.996 18.386 100.377 18.0167 100.656 18.0167C112.599 18.0167 122.004 20.9557 128.873 26.8339Z" fill="#0D131A"/>
<path d="M55.591 145.796C57.2618 139.303 59.5978 134.44 62.599 131.209L96.9893 141.18C99.9905 152.567 100.284 163.415 97.8711 173.725C96.4169 179.849 94.1427 185.312 91.0487 190.113C89.3779 192.729 85.9745 194.452 80.8384 195.283C75.4238 196.176 70.2103 195.637 65.198 193.668C61.547 192.252 58.6851 188.79 56.612 183.281C54.6937 178.264 53.6572 172.248 53.5025 165.231C53.3478 158.368 54.044 151.89 55.591 145.796Z" fill="#7CBEB3"/>
<path d="M62.9707 158.491C63.1564 156.614 65.4305 154.075 69.7931 150.874C74.1557 147.674 76.9249 146.52 78.1006 147.412C79.3073 148.305 79.5393 153.167 78.7968 162C78.0542 170.832 76.9249 175.31 75.4088 175.433C74.5115 175.495 72.191 173.033 68.4472 168.047C64.6725 163 62.847 159.815 62.9707 158.491Z" fill="#006359"/>
<path d="M54.71 147.735C54.8647 160.938 57.8505 171.94 63.6673 180.742C69.2365 189.267 76.1981 193.96 84.552 194.822C81.1486 195.683 77.4667 195.96 73.5063 195.653C65.5856 195.037 60.2484 191.775 57.4947 185.866C54.741 179.988 53.4569 171.863 53.6426 161.492L54.71 147.735Z" fill="#68A198"/>
<path d="M60.6038 136.287C56.5816 143.15 54.7561 152.982 55.1274 165.785C55.5296 179.111 58.3452 187.682 63.5741 191.498C67.1322 194.083 71.897 195.114 77.8685 194.591C83.6235 194.068 87.4291 192.498 89.2856 189.882C93.4934 183.942 96.2471 176.772 97.5466 168.37C98.7224 160.799 98.5677 153.598 97.0825 146.766C96.34 143.35 96.2471 141.519 96.8041 141.272C97.361 141.026 98.1036 142.565 99.0318 145.889C100.95 152.813 101.337 160.307 100.192 168.37C98.9544 177.141 96.1234 184.666 91.6989 190.944C89.4093 194.175 84.6754 196.068 77.4973 196.622C70.4738 197.145 65.183 196.114 61.6248 193.529C59.0568 191.652 56.9374 188.328 55.2666 183.558C53.6577 179.003 52.6831 173.771 52.3427 167.862C51.5073 154.444 53.6422 143.596 58.7474 135.317C60.5419 132.394 61.7795 130.993 62.4602 131.116C63.1719 131.209 62.5531 132.932 60.6038 136.287Z" fill="#0D131A"/>
<path d="M64.0843 158.03C64.0224 159.107 65.6158 162.123 68.8645 167.078C72.1752 172.125 74.2946 174.587 75.2228 174.464C76.2438 174.31 77.0792 170.14 77.729 161.953C78.3787 153.736 78.224 149.289 77.2649 148.612C76.3676 147.997 73.9542 149.151 70.0248 152.075C66.1263 154.998 64.1461 156.983 64.0843 158.03ZM61.9494 157.568C62.0422 155.321 64.6257 152.49 69.6999 149.074C74.6813 145.75 77.6671 144.55 78.6572 145.473C80.297 147.043 80.7611 152.382 80.0495 161.492C79.3069 170.601 77.992 175.695 76.1046 176.772C74.8051 177.541 72.0978 175.11 67.9827 169.478C63.8677 163.877 61.8565 159.907 61.9494 157.568Z" fill="#0D131A"/>
<path d="M26.9558 190.205C26.8011 189.744 27.389 188.959 28.7194 187.851C30.0808 186.743 31.1018 186.235 31.7825 186.328C33.0201 186.482 33.871 187.82 34.3351 190.344C34.7683 192.683 34.7992 194.022 34.4279 194.36C33.9948 194.76 32.7881 194.514 30.8079 193.621C28.673 192.667 27.389 191.529 26.9558 190.205Z" fill="white"/>
<path d="M40.7863 193.668C38.6205 192.683 37.5376 191.698 37.5376 190.713C37.5376 189.851 38.1719 188.805 39.4404 187.574C40.678 186.343 41.6217 185.881 42.2715 186.189C43.2925 186.682 44.1279 188.128 44.7776 190.528C45.3965 192.837 45.4274 194.175 44.8705 194.545C44.2826 194.945 42.9212 194.652 40.7863 193.668Z" fill="white"/>
<path d="M48.073 190.852C47.8564 189.251 48.4443 187.774 49.8366 186.42L52.0179 184.85C53.1627 185.343 54.06 186.82 54.7097 189.282C55.2976 191.498 55.4368 192.79 55.1274 193.16L51.461 193.067C49.2952 192.544 48.1659 191.806 48.073 190.852Z" fill="white"/>
<path d="M66.3117 194.729C66.2498 193.929 66.5282 193.067 67.147 192.144C67.8896 191.036 68.8333 190.498 69.9781 190.528C71.1229 190.559 72.0047 190.99 72.6235 191.821C73.1185 192.59 73.3351 193.529 73.2732 194.637C73.2114 195.652 72.8556 196.791 72.2058 198.053C71.587 199.315 71.092 199.946 70.7207 199.946C70.3184 199.946 69.514 199.284 68.3073 197.961C67.0388 196.576 66.3735 195.499 66.3117 194.729Z" fill="white"/>
<path d="M75.5483 195.745C75.4555 194.237 75.8732 192.99 76.8014 192.006C77.544 191.175 78.2865 190.759 79.0291 190.759C79.586 190.759 80.2358 191.175 80.9783 192.006C81.7209 192.867 82.185 193.729 82.3707 194.591C82.4944 195.145 82.3552 196.099 81.953 197.453C81.5507 198.899 81.0712 199.761 80.5142 200.038C79.9573 200.346 79.0291 200.007 77.7296 199.022C76.3373 198.007 75.6102 196.914 75.5483 195.745Z" fill="white"/>
<path d="M84.6907 195.468C83.8244 194.545 83.9017 193.144 84.9228 191.267C85.9438 189.39 86.9494 188.59 87.9395 188.867C88.8677 189.174 89.7649 190.467 90.6313 192.744C91.4357 194.929 91.6368 196.33 91.2346 196.945C90.8633 197.499 89.9042 197.622 88.3572 197.314C86.7792 196.976 85.5571 196.36 84.6907 195.468Z" fill="white"/>
<path d="M100.47 187.066C100.346 186.42 100.949 185.62 102.28 184.666C103.579 183.742 104.523 183.404 105.111 183.65C106.132 184.112 106.797 185.404 107.107 187.528C107.416 189.59 107.292 190.744 106.735 190.99C106.178 191.236 105.08 190.944 103.44 190.113C101.677 189.19 100.686 188.174 100.47 187.066Z" fill="white"/>
<path d="M113.048 190.205C111.16 189.559 110.062 188.82 109.753 187.989C109.474 187.282 109.954 186.266 111.191 184.943C112.429 183.65 113.326 183.127 113.883 183.373C114.966 183.835 115.724 185.02 116.157 186.928C116.528 188.59 116.559 189.728 116.25 190.344L113.048 190.205Z" fill="white"/>
<path d="M118.106 186.374C117.735 185.635 118.261 184.573 119.684 183.188C121.077 181.834 122.082 181.28 122.701 181.527C123.413 181.834 124.109 182.958 124.79 184.896C125.439 186.805 125.609 187.974 125.3 188.405L121.773 188.313C119.731 187.82 118.509 187.174 118.106 186.374Z" fill="white"/>
<path d="M170.736 193.483C170.303 193.052 170.643 191.944 171.757 190.159C172.871 188.343 173.815 187.451 174.588 187.482C175.609 187.543 176.754 188.651 178.023 190.805C179.229 192.837 179.693 194.037 179.415 194.406C179.075 194.837 177.76 194.975 175.47 194.822C173.088 194.668 171.51 194.221 170.736 193.483Z" fill="white"/>
<path d="M180.854 190.944C180.42 190.482 180.699 189.328 181.689 187.482C182.648 185.635 183.483 184.743 184.195 184.804C184.876 184.866 185.835 185.943 187.073 188.036C188.248 190.098 188.728 191.359 188.511 191.821C188.233 192.283 187.103 192.452 185.123 192.329C183.019 192.206 181.596 191.744 180.854 190.944Z" fill="white"/>
<path d="M188.604 186.697C188.109 186.081 188.264 184.912 189.068 183.188C189.842 181.526 190.461 180.726 190.925 180.788C191.729 180.88 192.719 181.896 193.895 183.835C195.04 185.743 195.473 186.943 195.194 187.435C194.978 187.958 194.003 188.158 192.271 188.035C190.445 187.912 189.223 187.466 188.604 186.697Z" fill="white"/>
<path d="M28.9521 187.574L30.9942 190.113C32.3555 191.99 33.1136 193.452 33.2683 194.498L30.0195 192.837C27.8847 191.636 26.8791 190.775 27.0028 190.251C27.1266 189.728 27.4979 189.128 28.1167 188.451L28.9521 187.574Z" fill="#DBDCDC"/>
<path d="M39.3944 187.759L41.158 189.928C42.3956 191.652 43.2155 193.206 43.6178 194.591C39.8121 193.267 37.8628 191.959 37.77 190.667C37.7081 189.867 37.9557 189.144 38.5126 188.497L39.3944 187.759Z" fill="#DBDCDC"/>
<path d="M53.9665 193.483C51.9863 193.052 50.563 192.621 49.6967 192.19C48.7066 191.729 48.1497 191.159 48.0259 190.482C47.9021 189.897 48.0259 189.22 48.3972 188.451L49.0005 187.482C49.8359 187.882 50.857 188.866 52.0636 190.436C53.0847 191.79 53.7189 192.806 53.9665 193.483Z" fill="#DBDCDC"/>
<path d="M68.1686 191.498L68.6327 194.314C69.0349 196.437 69.53 198.099 70.1178 199.299L68.3542 197.776C67.2094 196.514 66.668 195.222 66.7299 193.898C66.7917 192.975 67.0238 192.298 67.426 191.867C67.7354 191.529 67.9829 191.406 68.1686 191.498Z" fill="#DBDCDC"/>
<path d="M76.5221 192.975L78.2857 195.837L80.6063 200.084C79.7399 199.807 78.8736 199.407 78.0073 198.884C76.2746 197.838 75.4702 196.714 75.5939 195.514C75.7177 194.345 75.9033 193.575 76.1508 193.206L76.5221 192.975Z" fill="#DBDCDC"/>
<path d="M84.9222 191.313L87.1035 193.391C88.6505 194.96 89.5942 196.268 89.9345 197.314L87.0571 196.391C85.1388 195.653 84.2106 194.929 84.2724 194.221L84.6437 192.144L84.9222 191.313Z" fill="#DBDCDC"/>
<path d="M102.002 184.989C102.28 185.173 102.868 185.866 103.765 187.066C104.879 188.574 105.498 189.79 105.622 190.713L102.28 189.143C101.414 188.62 100.965 187.959 100.934 187.158C100.903 186.574 101.073 186.035 101.445 185.543L102.002 184.989Z" fill="#DBDCDC"/>
<path d="M110.68 185.266L112.212 186.328C113.388 187.405 114.409 188.82 115.275 190.575L112.769 189.882C111.067 189.267 110.124 188.559 109.938 187.759C109.752 186.959 109.814 186.312 110.124 185.82L110.68 185.266Z" fill="#DBDCDC"/>
<path d="M119.406 183.419L121.309 184.804C122.67 186.004 123.598 187.251 124.094 188.543L121.448 188.174C119.592 187.712 118.493 187.02 118.153 186.097C117.967 185.666 118.045 185.127 118.385 184.481C118.694 183.866 119.035 183.512 119.406 183.419Z" fill="#DBDCDC"/>
<path d="M171.942 189.928C174.541 191.159 176.63 192.698 178.208 194.545L174.727 194.591C172.406 194.468 171.2 194.006 171.107 193.206C171.014 192.406 171.122 191.621 171.432 190.851L171.942 189.928Z" fill="#DBDCDC"/>
<path d="M181.642 187.943C182.168 188.097 183.05 188.559 184.288 189.328C185.959 190.344 186.995 191.313 187.397 192.236L184.149 192.098C181.952 191.852 180.838 191.375 180.807 190.667C180.745 189.99 180.869 189.328 181.178 188.682L181.642 187.943Z" fill="#DBDCDC"/>
<path d="M188.975 183.419L191.017 184.666C192.533 185.712 193.585 186.82 194.173 187.989L191.76 187.805C190.089 187.559 189.053 187.143 188.65 186.558C188.248 185.974 188.186 185.266 188.465 184.435L188.975 183.419Z" fill="#DBDCDC"/>
<path d="M169.854 193.76C169.607 192.867 170.102 191.436 171.339 189.467C172.577 187.466 173.645 186.451 174.542 186.42C175.439 186.389 176.692 187.559 178.301 189.928C179.879 192.236 180.56 193.806 180.343 194.637C180.158 195.376 178.425 195.606 175.145 195.329C171.865 195.052 170.102 194.529 169.854 193.76ZM172.871 190.159C172.098 191.39 171.788 192.283 171.943 192.837C172.252 193.267 173.351 193.621 175.238 193.898C177.063 194.175 178.054 194.16 178.208 193.852C178.363 193.514 177.945 192.529 176.955 190.898C175.903 189.236 175.083 188.39 174.495 188.359C174.155 188.328 173.614 188.928 172.871 190.159Z" fill="#0D131A"/>
<path d="M187.536 191.452C187.722 191.175 187.32 190.19 186.329 188.497C185.37 186.805 184.643 185.912 184.148 185.82C183.777 185.789 183.251 186.435 182.57 187.759C181.859 189.082 181.565 190.005 181.688 190.529C181.781 190.99 182.756 191.329 184.612 191.544L187.536 191.452ZM184.38 183.743C185.37 183.866 186.546 185.235 187.907 187.851C189.207 190.344 189.717 191.883 189.439 192.467C189.16 193.083 187.691 193.268 185.03 193.021C182.307 192.744 180.667 192.221 180.11 191.452C179.615 190.775 179.94 189.313 181.085 187.066C182.23 184.727 183.328 183.619 184.38 183.743Z" fill="#0D131A"/>
<path d="M189.671 183.696C189.207 184.743 189.114 185.604 189.392 186.281C189.516 186.651 190.336 186.943 191.852 187.159L194.312 187.02C194.497 186.712 194.172 185.82 193.337 184.343C192.502 182.773 191.775 182.004 191.156 182.034C190.63 182.096 190.135 182.65 189.671 183.696ZM188.65 182.542C189.609 180.788 190.429 179.911 191.109 179.911C192.254 179.911 193.461 181.188 194.729 183.742C195.967 186.204 196.4 187.743 196.029 188.359L191.898 188.497C189.361 188.189 187.984 187.759 187.768 187.205C187.304 186.004 187.598 184.45 188.65 182.542Z" fill="#0D131A"/>
<path d="M80.5136 192.652C79.9876 192.036 79.4771 191.759 78.982 191.821C78.2704 191.852 77.6361 192.298 77.0792 193.16C76.5223 193.991 76.2902 194.791 76.383 195.56C76.4758 196.268 77.0792 197.068 78.193 197.961C79.2759 198.792 80.003 199.13 80.3743 198.976C80.6219 198.884 80.8849 198.438 81.1633 197.638C81.5346 196.714 81.6584 195.853 81.5346 195.052C81.4418 194.098 81.1014 193.298 80.5136 192.652ZM75.6869 192.052C76.7388 190.513 77.8836 189.79 79.1212 189.882C80.0185 189.944 80.823 190.405 81.5346 191.267C82.2462 192.129 82.6949 193.19 82.8805 194.452C83.0971 195.683 83.0043 197.022 82.602 198.468C82.1998 199.884 81.7048 200.7 81.1169 200.915C80.3743 201.192 79.1831 200.792 77.5433 199.715C75.7797 198.515 74.7741 197.207 74.5266 195.791C74.341 194.714 74.7277 193.467 75.6869 192.052Z" fill="#0D131A"/>
<path d="M71.6491 192.56C71.2468 192.006 70.7982 191.698 70.3032 191.636C69.7153 191.575 69.0965 191.821 68.4467 192.375C67.7661 192.929 67.4257 193.529 67.4257 194.175C67.4566 194.976 67.9053 195.93 68.7716 197.037C69.5451 198.084 70.1175 198.607 70.4888 198.607C70.8292 198.576 71.2004 198.13 71.6027 197.268C72.0358 196.407 72.2679 195.545 72.2988 194.683C72.3298 193.883 72.1132 193.175 71.6491 192.56ZM66.8688 191.036C68.0136 190.021 69.2048 189.59 70.4424 189.744C71.4634 189.867 72.3452 190.421 73.0878 191.406C73.7994 192.39 74.1243 193.483 74.0624 194.683C74.0315 195.668 73.6447 196.93 72.9022 198.469C72.0977 200.069 71.4015 200.9 70.8137 200.961C70.133 201.054 69.0655 200.269 67.6113 198.607C66.0643 196.884 65.2599 195.422 65.198 194.222C65.1361 193.083 65.693 192.021 66.8688 191.036Z" fill="#0D131A"/>
<path d="M89.5173 191.636C88.8057 190.651 88.1559 190.159 87.5681 190.159C86.9802 190.098 86.3923 190.528 85.8045 191.452C85.1857 192.406 84.9536 193.298 85.1083 194.129C85.263 194.868 86.1293 195.514 87.7073 196.068C89.2234 196.56 90.1052 196.699 90.3527 196.483C90.5693 196.299 90.6157 195.652 90.4919 194.545C90.3682 193.344 90.0433 192.375 89.5173 191.636ZM87.8929 188.128C89.409 188.343 90.6002 189.928 91.4666 192.883C92.271 195.652 92.4257 197.314 91.9307 197.868L87.5681 197.591C84.9691 196.883 83.5613 195.96 83.3447 194.822C83.0972 193.56 83.453 192.113 84.4122 190.482C85.4641 188.728 86.6244 187.943 87.8929 188.128Z" fill="#0D131A"/>
<path d="M55.545 188.913C56.3186 191.867 56.3959 193.529 55.7771 193.898C54.9726 194.36 53.3947 194.268 51.0432 193.621C48.5989 192.944 47.2376 192.129 46.9591 191.175C46.5878 190.036 47.021 188.574 48.2586 186.789C49.5271 184.943 50.7957 184.066 52.0643 184.158C53.5494 184.25 54.7097 185.835 55.545 188.913ZM48.9083 190.436C49.0012 191.082 49.852 191.667 51.4609 192.19C53.0079 192.683 53.9516 192.775 54.292 192.467C54.5395 192.252 54.4003 191.221 53.8743 189.374C53.3173 187.405 52.6676 186.358 51.925 186.235C51.3062 186.143 50.6255 186.558 49.883 187.482C49.0476 188.466 48.7227 189.451 48.9083 190.436Z" fill="#0D131A"/>
<path d="M38.6515 190.713C38.6515 191.421 39.5023 192.16 41.2041 192.929C42.8748 193.668 43.834 193.868 44.0815 193.529C44.36 193.191 44.2826 192.19 43.8495 190.529C43.3853 188.744 42.782 187.774 42.0394 187.62C41.3278 187.466 40.5852 187.789 39.8117 188.59C39.1001 189.328 38.7133 190.005 38.6515 190.621V190.713ZM38.6051 187.066C39.9355 185.835 41.1112 185.312 42.1323 185.497C43.6793 185.774 44.7931 187.389 45.4738 190.344C46.1236 193.144 46.139 194.806 45.5202 195.33C44.9324 195.883 43.2925 195.576 40.6007 194.406C37.7851 193.237 36.4392 191.913 36.563 190.436C36.6558 189.39 37.3365 188.266 38.6051 187.066Z" fill="#0D131A"/>
<path d="M119.034 185.727C119.127 186.343 120.025 186.928 121.726 187.482C123.366 188.005 124.294 188.128 124.511 187.851C124.727 187.574 124.588 186.62 124.093 184.989C123.567 183.265 122.995 182.373 122.376 182.311C121.85 182.25 121.138 182.65 120.241 183.512C119.344 184.404 118.942 185.143 119.034 185.727ZM119.081 182.634C120.69 181.096 121.958 180.48 122.887 180.788C124.062 181.219 125.021 182.681 125.764 185.173C126.476 187.543 126.599 188.943 126.135 189.374C125.671 189.774 124.155 189.636 121.587 188.959C118.957 188.251 117.487 187.466 117.178 186.604C116.807 185.527 117.441 184.204 119.081 182.634Z" fill="#0D131A"/>
<path d="M113.141 189.42C114.502 189.882 115.291 190.005 115.508 189.79C115.724 189.574 115.678 188.697 115.368 187.158C115.028 185.527 114.548 184.635 113.93 184.481C113.311 184.327 112.584 184.666 111.748 185.497C110.913 186.358 110.573 187.112 110.727 187.759C110.913 188.405 111.717 188.959 113.141 189.42ZM114.301 182.773C115.322 183.019 116.173 184.358 116.854 186.789C117.472 189.159 117.534 190.713 117.039 191.452C116.73 191.913 115.353 191.713 112.909 190.852C110.372 189.959 109.01 189.02 108.824 188.036C108.608 187.051 109.196 185.866 110.588 184.481C112.011 183.065 113.249 182.496 114.301 182.773Z" fill="#0D131A"/>
<path d="M103.765 189.328C105.127 190.067 105.946 190.344 106.225 190.159C106.472 190.005 106.503 189.113 106.318 187.482C106.101 185.758 105.668 184.789 105.018 184.573C104.399 184.358 103.657 184.573 102.791 185.22C101.955 185.835 101.553 186.451 101.584 187.066C101.615 187.805 102.342 188.559 103.765 189.328ZM105.529 182.865C106.828 183.142 107.602 184.666 107.849 187.435C108.066 190.051 107.911 191.544 107.385 191.913C106.797 192.283 105.343 191.852 103.023 190.621C100.671 189.328 99.449 188.205 99.3562 187.251C99.2634 186.358 99.9286 185.343 101.352 184.204C102.868 183.035 104.26 182.588 105.529 182.865Z" fill="#0D131A"/>
<path d="M30.6223 192.236C32.2621 193.067 33.2058 193.329 33.4534 193.021C33.7318 192.713 33.6854 191.744 33.3141 190.113C32.9119 188.42 32.4323 187.497 31.8754 187.343C31.2256 187.128 30.4367 187.374 29.5085 188.082C28.5802 188.79 28.1161 189.482 28.1161 190.159C28.1471 190.682 28.9825 191.375 30.6223 192.236ZM32.2931 185.266C33.6235 185.543 34.5672 187.158 35.1241 190.113C35.6501 192.944 35.6347 194.529 35.0777 194.868C34.1186 195.514 32.3859 195.175 29.8797 193.852C27.4045 192.56 26.1205 191.405 26.0277 190.39C25.9039 189.22 26.631 188.005 28.209 186.743C29.756 185.512 31.1174 185.02 32.2931 185.266Z" fill="#0D131A"/>
</svg>
