<svg width="172" height="24" viewBox="0 0 172 24" fill="none" xmlns="http://www.w3.org/2000/svg">
<path d="M52.5677 0V8.9644C50.9215 7.14764 48.5418 6.0047 45.8977 6.0047C40.9336 6.0047 36.9077 10.0306 36.9077 14.9947C36.9077 19.9588 40.9336 23.9847 45.8977 23.9847C48.5418 23.9847 50.9215 22.8417 52.5677 21.025V23.8311H55.2203V0H52.5677ZM45.8977 21.332C42.4006 21.332 39.5604 18.4917 39.5604 14.9947C39.5604 11.4976 42.4006 8.65734 45.8977 8.65734C49.3948 8.65734 52.235 11.4976 52.235 14.9947C52.2265 18.5003 49.3948 21.332 45.8977 21.332Z" fill="#C5CEE8"/>
<path d="M24.8474 5.97058C19.8833 5.97058 15.8574 9.99646 15.8574 14.9606C15.8574 19.9247 19.8833 23.9506 24.8474 23.9506C29.8115 23.9506 33.8374 19.9247 33.8374 14.9606C33.8459 9.99646 29.82 5.97058 24.8474 5.97058ZM24.8474 21.2126C21.393 21.2126 18.5954 18.415 18.5954 14.9606C18.5954 11.5062 21.393 8.70852 24.8474 8.70852C28.3018 8.70852 31.0995 11.5062 31.0995 14.9606C31.0995 18.415 28.3018 21.2126 24.8474 21.2126Z" fill="#C5CEE8"/>
<path fill-rule="evenodd" clip-rule="evenodd" d="M12.838 19.9249L12.7527 19.9931C11.8486 20.6755 10.7654 21.1019 9.63097 21.2214C8.49656 21.3408 7.35362 21.1446 6.33009 20.6584C5.29804 20.1722 4.41951 19.4216 3.78833 18.4749C3.15716 17.5281 2.79039 16.4278 2.73922 15.2934C2.68804 14.159 2.94392 13.0246 3.4898 12.0267C4.03568 11.0287 4.83745 10.1928 5.81833 9.61284C6.79921 9.03284 7.91656 8.73431 9.0595 8.75137C10.1939 8.7599 11.3113 9.08402 12.2751 9.68107L12.3689 9.74078L13.8104 7.41225L13.7166 7.35255C12.3263 6.49108 10.7227 6.03049 9.08509 6.01343C7.44744 5.99637 5.83539 6.42284 4.42804 7.2502C3.02069 8.07755 1.86069 9.28019 1.08451 10.7217C0.308337 12.1631 -0.0669564 13.7837 0.00980818 15.4214C0.0865728 17.059 0.606866 18.6369 1.51951 20.0016C2.43216 21.3664 3.69451 22.4496 5.17009 23.149C6.65421 23.8484 8.29185 24.1213 9.92097 23.9508C11.5501 23.7802 13.1024 23.1746 14.4074 22.1852L14.4927 22.1169L12.838 19.9249Z" fill="#C5CEE8"/>
<path d="M71.9126 18.1421C71.2132 19.413 70.1215 20.3513 68.8506 20.8289C67.5882 21.3065 66.215 21.3066 64.9527 20.8204C63.6903 20.3342 62.5985 19.396 61.8991 18.1166C61.3959 17.2039 61.1315 16.1804 61.1059 15.1313H75.6571L75.3926 13.5107C75.06 11.421 74.0279 9.51892 72.4841 8.15422C70.9403 6.78098 68.9871 6.02187 66.9571 6.00481C64.9356 5.98775 62.9653 6.72128 61.4044 8.07745C59.8435 9.4251 58.7859 11.3101 58.4277 13.3998C58.0694 15.481 58.4191 17.6389 59.4341 19.4727C60.4406 21.3065 62.0356 22.7139 63.9462 23.4474C65.8482 24.1724 67.9379 24.181 69.84 23.456C71.7421 22.731 73.3456 21.3321 74.3606 19.4983L74.4118 19.4045L71.9553 18.0483L71.9126 18.1421ZM63.2468 10.1927C64.3044 9.2801 65.6094 8.79392 66.94 8.81098C68.2706 8.81951 69.5756 9.32274 70.6247 10.2439C71.2644 10.8154 71.7847 11.5233 72.1429 12.3251H61.6688C62.0441 11.5063 62.5815 10.7727 63.2468 10.1927Z" fill="#C5CEE8"/>
<path opacity="0.7" fill-rule="evenodd" clip-rule="evenodd" d="M118.346 5.98767H109.493C104.546 5.98767 100.537 9.99649 100.537 14.935C100.537 19.8735 104.546 23.8823 109.493 23.8823H118.346V20.3682H109.493C106.491 20.3682 104.051 17.9374 104.051 14.935C104.051 11.9327 106.491 9.50178 109.493 9.50178H118.346V5.98767Z" fill="white"/>
<path fill-rule="evenodd" clip-rule="evenodd" d="M79.4268 23.8653V0H82.9409V8.01763C84.4932 6.73822 86.4806 5.97058 88.647 5.97058C93.5941 5.97058 97.6029 9.9794 97.6029 14.9179C97.6029 19.8564 93.5941 23.8653 88.647 23.8653C86.4806 23.8653 84.4932 23.0976 82.9409 21.8182V23.8653H79.4268ZM83.2053 14.9179C83.2053 17.9203 85.6447 20.3511 88.647 20.3511C91.6494 20.3511 94.0888 17.9203 94.0888 14.9179C94.0888 11.9156 91.6579 9.48469 88.647 9.48469C85.6362 9.47616 83.2053 11.9156 83.2053 14.9179ZM162.145 9.45057V17.2209C162.145 20.88 165.113 23.8482 168.772 23.8482H171.399V20.3341H168.772C167.049 20.3341 165.659 18.9353 165.659 17.2209V9.45057H171.416V5.93646H165.659V0H162.145V5.93646H159.475V9.45057H162.145ZM139.303 11.2759C139.303 8.32469 141.725 5.92793 144.719 5.92793H155.518V9.39087H144.719C143.67 9.39087 142.817 10.2353 142.817 11.2673C142.817 12.3079 143.67 13.1438 144.719 13.1438H147.67H151.15C154.144 13.1438 156.567 15.5406 156.567 18.4917C156.567 21.4429 154.144 23.8397 151.15 23.8397H139.414V20.3767H151.15C152.2 20.3767 153.053 19.5323 153.053 18.5003C153.053 17.4682 152.2 16.6238 151.15 16.6238H146.741H144.719C141.725 16.6238 139.303 14.227 139.303 11.2759ZM127.456 9.50175H118.5C115.498 9.50175 113.058 11.9326 113.058 14.935C113.058 17.9373 115.498 20.3682 118.5 20.3682H127.456C130.458 20.3682 132.898 17.9373 132.898 14.935C132.898 11.9326 130.458 9.50175 127.456 9.50175ZM118.5 5.98764C113.553 5.98764 109.544 9.99646 109.544 14.935C109.544 19.8735 113.553 23.8823 118.5 23.8823H127.456C132.403 23.8823 136.412 19.8735 136.412 14.935C136.412 9.99646 132.403 5.98764 127.456 5.98764H118.5Z" fill="white"/>
</svg>
