<svg width="32" height="32" viewBox="0 0 32 32" fill="none" xmlns="http://www.w3.org/2000/svg">
<path d="M-2.91188e-05 15.9999C-2.89351e-05 13.8988 0.41382 11.8182 1.21789 9.877C2.02196 7.9358 3.2005 6.17199 4.68623 4.68626C6.17196 3.20053 7.93577 2.02199 9.87697 1.21792C11.8182 0.413851 13.8987 2.23226e-06 15.9999 2.41594e-06C18.101 2.59963e-06 20.1816 0.413852 22.1228 1.21792C24.064 2.02199 25.8278 3.20054 27.3135 4.68626C28.7992 6.17199 29.9778 7.93581 30.7818 9.877C31.5859 11.8182 31.9998 13.8988 31.9998 15.9999L15.9999 15.9999L-2.91188e-05 15.9999Z" fill="#F33C3C"/>
<circle cx="16.0004" cy="15.9999" r="15.2499" stroke="#F33C3C" stroke-width="1.5"/>
<circle cx="16" cy="15.9999" r="5.06814" fill="white" stroke="#F33C3C" stroke-width="1.5"/>
<path d="M10.9095 15.9999H0.000488281" stroke="#F33C3C" stroke-width="1.5"/>
<path d="M32 15.9999L21 15.9999" stroke="#F33C3C" stroke-width="1.5"/>
</svg>
