<svg width="170" height="58" viewBox="0 0 170 58" fill="none" xmlns="http://www.w3.org/2000/svg">
<path d="M14.0209 29L14.8152 33.8224C15.5256 38.1356 18.9062 41.5161 23.2193 42.2265L28.0417 43.0209L23.2193 43.8152C18.9062 44.5256 15.5256 47.9062 14.8152 52.2193L14.0209 57.0417L13.2265 52.2193C12.5161 47.9062 9.13556 44.5256 4.8224 43.8152L0 43.0209L4.8224 42.2265C9.13556 41.5161 12.5161 38.1356 13.2265 33.8224L14.0209 29Z" fill="url(#paint0_linear_99_371)"/>
<path d="M155.021 29L155.815 33.8224C156.526 38.1356 159.906 41.5161 164.219 42.2265L169.042 43.0209L164.219 43.8152C159.906 44.5256 156.526 47.9062 155.815 52.2193L155.021 57.0417L154.227 52.2193C153.516 47.9062 150.136 44.5256 145.822 43.8152L141 43.0209L145.822 42.2265C150.136 41.5161 153.516 38.1356 154.227 33.8224L155.021 29Z" fill="url(#paint1_linear_99_371)"/>
<path d="M83.059 0L84.2454 7.20249C85.3065 13.6444 90.3555 18.6934 96.7974 19.7545L104 20.9409L96.7974 22.1272C90.3555 23.1883 85.3065 28.2373 84.2454 34.6792L83.059 41.8817L81.8727 34.6792C80.8116 28.2373 75.7626 23.1883 69.3207 22.1272L62.1182 20.9409L69.3207 19.7545C75.7626 18.6934 80.8116 13.6444 81.8727 7.20249L83.059 0Z" fill="#FBC418"/>
<defs>
<linearGradient id="paint0_linear_99_371" x1="24.9432" y1="29" x2="2.4719" y2="33.7325" gradientUnits="userSpaceOnUse">
<stop stop-color="#FFD44F"/>
<stop offset="1" stop-color="#FF8A01"/>
</linearGradient>
<linearGradient id="paint1_linear_99_371" x1="165.943" y1="29" x2="143.472" y2="33.7325" gradientUnits="userSpaceOnUse">
<stop stop-color="#FFD44F"/>
<stop offset="1" stop-color="#FF8A01"/>
</linearGradient>
</defs>
</svg>
